<?xml version="1.0" encoding="UTF-8" standalone="no"?>
<!-- Created with Inkscape (http://www.inkscape.org/) -->

<svg
   width="512"
   height="512"
   viewBox="0 0 512 512"
   version="1.1"
   id="svg1"
   xml:space="preserve"
   inkscape:version="1.4.3 (fcd0343856, 2026-01-01)"
   sodipodi:docname="axis-standard-dark.svg"
   inkscape:export-filename="axis-standard-dark.png"
   inkscape:export-xdpi="96"
   inkscape:export-ydpi="96"
   xmlns:inkscape="http://www.inkscape.org/namespaces/inkscape"
   xmlns:sodipodi="http://sodipodi.sourceforge.net/DTD/sodipodi-0.dtd"
   xmlns:xlink="http://www.w3.org/1999/xlink"
   xmlns="http://www.w3.org/2000/svg"
   xmlns:svg="http://www.w3.org/2000/svg"><sodipodi:namedview
     id="namedview1"
     pagecolor="#222222"
     bordercolor="#000000"
     borderopacity="0.25"
     inkscape:showpageshadow="2"
     inkscape:pageopacity="0.0"
     inkscape:pagecheckerboard="0"
     inkscape:deskcolor="#d1d1d1"
     inkscape:document-units="px"
     inkscape:zoom="1.4296875"
     inkscape:cx="256"
     inkscape:cy="256"
     inkscape:window-width="1920"
     inkscape:window-height="940"
     inkscape:window-x="0"
     inkscape:window-y="0"
     inkscape:window-maximized="1"
     inkscape:current-layer="layer1"
     inkscape:export-bgcolor="#333333ff" /><defs
     id="defs1"><linearGradient
       id="linearGradient1"
       inkscape:collect="always"><stop
         style="stop-color:#00d4ff;stop-opacity:1;"
         offset="0"
         id="stop1" /><stop
         style="stop-color:#0080ff;stop-opacity:1;"
         offset="1"
         id="stop2" /></linearGradient><linearGradient
       inkscape:collect="always"
       xlink:href="#linearGradient1"
       id="linearGradient2"
       x1="-0.5"
       y1="256"
       x2="512.5"
       y2="256"
       gradientUnits="userSpaceOnUse"
       gradientTransform="matrix(0.75,0,0,0.75,63.999999,64)" /></defs><g
     inkscape:label="Layer 1"
     inkscape:groupmode="layer"
     id="layer1"><path
       d="m 277,71.1625 c -12.975,-7.5 -29.025,-7.5 -42,0 l -63.15,36.45 c -12.975,7.5 -21,21.375 -21,36.375 v 76.425 l -66.225002,38.25 c -12.974999,7.5 -20.999999,21.375 -20.999999,36.375 v 72.975 c 0,15 8.025,28.875 20.999999,36.375 l 63.225002,36.45 c 12.975,7.5 29.025,7.5 42,0 l 66.225,-38.25 66.225,38.25 c 12.975,7.5 29.025,7.5 42,0 l 63.075,-36.45 c 12.975,-7.5 21,-21.375 21,-36.375 v -72.975 c 0,-15 -8.025,-28.875 -21,-36.375 l -66.225,-38.25 v -76.425 c 0,-15 -8.025,-28.875 -21,-36.375 z m -39,220.425 v 79.875 l -66.225,38.25 c -0.9,0.525 -1.95,0.825 -3,0.825 v -78.975 z m 173.55,0.45 c 0.525,0.9 0.825,1.95 0.825,3 v 72.975 c 0,2.175 -1.125,4.125 -3,5.175 l -63.225,36.45 c -0.9,0.525 -1.95,0.825 -3,0.825 v -78.975 z m -86.325,-148.05 v 76.425 L 256,260.3875 v -79.875 l 68.4,-39.45 c 0.525,0.9 0.825,1.95 0.825,3 z"
       id="path1"
       style="fill:url(#linearGradient2);stroke-width:0.75" /></g></svg>
